# xmcd CD database file
#
# Track frame offsets:
#	150
#	15684
#	28224
#	43422
#	58325
#	72258
#	86866
#	100133
#	115715
#	126449
#
# Disc length: 1909 seconds
#
# Revision: 0
# Processed by: cddbd v1.4PL0 Copyright (c) Steve Scherf et al.
# Submitted via: CDex 1.50beta10
#
DISCID=9307730a
DTITLE=Country Acoustic Trio - Country Acoustic Trio
DYEAR=1900
DGENRE=Country
TTITLE0=I'm Sorry
TTITLE1=Jolene
TTITLE2=The River
TTITLE3=When You Say Nothing At All
TTITLE4=Annie's Song
TTITLE5=Dixieland Delight
TTITLE6=The Dance
TTITLE7=Leaving On A Jetplane
TTITLE8=Mama Tried
TTITLE9=Country-Roads
EXTD=
EXTT0=
EXTT1=
EXTT2=
EXTT3=
EXTT4=
EXTT5=
EXTT6=
EXTT7=
EXTT8=
EXTT9=
PLAYORDER=
